# xmcd CD database file
#
# Track frame offsets:
#	182
#	32410
#	92055
#	152427
#	223722
#
# Disc length: 4426 seconds
#
# Revision: 1
# Processed by: cddbd v1.5PL3 Copyright (c) Steve Scherf et al.
# Submitted via: CDex 1.50
#
DISCID=33114805
DTITLE=Lokomotiv Konkret - Kein aber
DYEAR=1900
DGENRE=Jazz
TTITLE0=Our Lokomotive
TTITLE1=Make noise not war
TTITLE2=Lika lön
TTITLE3=VII/Causa sui
TTITLE4=The Heisenberg paradox
EXTD=
EXTT0=
EXTT1=
EXTT2=
EXTT3=
EXTT4=
PLAYORDER=
